name C:\Users\u0101727\Documents\MyRepositories\paper-ad\predictivesimulations_2d/Results/PredSim_2D/IK_c15.mot
datacolumns 11
datarows 38
range 1.27595276 1.63091706
endheader
time	pelvis_tilt	pelvis_tx	pelvis_ty	hip_flexion_l	hip_flexion_r	knee_angle_l	knee_angle_r	ankle_angle_l	ankle_angle_r	lumbar_extension	
          1.27595276	        -15.11377008	          1.69369204	          0.90062922	         33.20421030	         10.38027495	        -37.56334128	         -7.29080270	         15.70397925	         11.30561493	          9.43452589	
          1.28554639	        -15.11307548	          1.70567981	          0.89977033	         34.17267601	          9.60461247	        -36.09050773	         -7.33869893	         15.98959988	         11.31617936	          9.39466791	
          1.29514002	        -15.11345707	          1.71772312	          0.89885350	         35.08000635	          8.84659305	        -34.50105288	         -7.42231579	         16.19431787	         11.31447918	          9.35806235	
          1.30473365	        -15.11530677	          1.72982844	          0.89787760	         35.92273235	          8.10517047	        -32.80269829	         -7.54059656	         16.32725423	         11.30412318	          9.32501781	
          1.31432728	        -15.11894680	          1.74200389	          0.89684147	         36.69627691	          7.37999571	        -31.00690361	         -7.69382599	         16.39719240	         11.28593609	          9.29591978	
          1.32392090	        -15.12444638	          1.75426147	          0.89574776	         37.39392372	          6.67196890	        -29.13988096	         -7.88567686	         16.41227543	         11.25830241	          9.27135934	
          1.33351453	        -15.13183436	          1.76661943	          0.89460888	         38.00271190	          5.98311821	        -27.23586053	         -8.12238918	         16.37978746	         11.21518108	          9.25264216	
          1.34310816	        -15.14113276	          1.77909925	          0.89344654	         38.50687260	          5.31659628	        -25.32702055	         -8.41107277	         16.30611967	         11.14416000	          9.24148774	
          1.35270179	        -15.15202274	          1.79171972	          0.89228325	         38.89698323	          4.67680794	        -23.44118353	         -8.76018839	         16.19666175	         11.02895822	          9.23908264	
          1.36229542	        -15.16370722	          1.80449544	          0.89113698	         39.17290224	          4.06901681	        -21.60022784	         -9.17959775	         16.05554141	         10.85304661	          9.24583308	
          1.37188905	        -15.17497319	          1.81743925	          0.89002204	         39.34151936	          3.49851653	        -19.82577125	         -9.67963340	         15.88535518	         10.60215244	          9.26166573	
          1.38148268	        -15.18460125	          1.83056502	          0.88895060	         39.41005197	          2.97018832	        -18.13260474	        -10.26996855	         15.68729100	         10.26343064	          9.28667234	
          1.39107631	        -15.19144910	          1.84388720	          0.88793182	         39.38532477	          2.48846588	        -16.53250950	        -10.95916956	         15.46125024	          9.82473096	          9.32109236	
          1.40066994	        -15.19426287	          1.85741999	          0.88697096	         39.27493545	          2.05796668	        -15.04253006	        -11.75623558	         15.20596011	          9.27520342	          9.36506512	
          1.41026357	        -15.19177931	          1.87117779	          0.88606911	         39.08392391	          1.68421045	        -13.67720816	        -12.67145636	         14.91939068	          8.60387259	          9.41888248	
          1.41985720	        -15.18259299	          1.88517419	          0.88522196	         38.81706671	          1.37310399	        -12.45642297	        -13.71575800	         14.59866330	          7.80029970	          9.48279552	
          1.42945083	        -15.16514560	          1.89942094	          0.88441837	         38.47972386	          1.13030507	        -11.40897167	        -14.89935030	         14.23999932	          6.85697785	          9.55695325	
          1.43904446	        -15.13799642	          1.91392913	          0.88363924	         38.07223210	          0.96060455	        -10.56572398	        -16.23152409	         13.83902449	          5.77392622	          9.64194577	
          1.44863809	        -15.09995436	          1.92870704	          0.88285304	         37.58754691	          0.86691853	         -9.96033609	        -17.72524357	         13.39073337	          4.57350031	          9.73883464	
          1.45823172	        -15.05086507	          1.94374838	          0.88201593	         37.00768120	          0.85197323	         -9.64096333	        -19.38645448	         12.89034754	          3.26924195	          9.84876519	
          1.46782535	        -14.99328558	          1.95903612	          0.88115128	         36.26456739	          0.92300617	         -9.72816129	        -21.21203742	         12.33580549	          1.84114898	          9.97571070	
          1.47741898	        -14.93542499	          1.97438439	          0.88038603	         35.40134495	          1.08464833	        -10.04223744	        -23.18341300	         11.76642680	          0.37457426	         10.11024150	
          1.48701261	        -14.88825915	          1.98945248	          0.87994966	         34.54320521	          1.36375866	        -10.32225890	        -25.20815111	         11.21614776	         -0.90893516	         10.22911495	
          1.49660624	        -14.86035322	          2.00399329	          0.88010390	         33.72740274	          1.78860515	        -10.58036777	        -27.14604372	         10.68486037	         -1.91133753	         10.31841967	
          1.50619987	        -14.85405005	          2.01794384	          0.88100452	         32.95639662	          2.35509325	        -10.81144178	        -28.93445973	         10.18722811	         -2.66200799	         10.37701514	
          1.51579350	        -14.86465666	          2.03138737	          0.88261073	         32.21165436	          3.04644624	        -11.00348519	        -30.59411398	          9.73953197	         -3.17040988	         10.41103831	
          1.52538713	        -14.88557947	          2.04444811	          0.88471276	         31.47205492	          3.84211617	        -11.14757084	        -32.15409935	          9.35325932	         -3.44929528	         10.42751379	
          1.53498076	        -14.91145654	          2.05723354	          0.88707801	         30.72080061	          4.72654038	        -11.23689323	        -33.63199135	          9.03469659	         -3.51420336	         10.43175860	
          1.54457439	        -14.93884914	          2.06981791	          0.88952378	         29.94844834	          5.68769229	        -11.26954267	        -35.03627792	          8.78546690	         -3.38013997	         10.42696833	
          1.55416802	        -14.96586335	          2.08224819	          0.89192644	         29.15047604	          6.71656323	        -11.24596485	        -36.36828459	          8.60452346	         -3.06342443	         10.41490055	
          1.56376165	        -14.99153825	          2.09455445	          0.89420678	         28.32533828	          7.80575404	        -11.16816173	        -37.62488978	          8.48922051	         -2.58081652	         10.39656569	
          1.57335528	        -15.01538352	          2.10675698	          0.89631439	         27.47341164	          8.94908295	        -11.03961863	        -38.80121243	          8.43582865	         -1.94917295	         10.37257709	
          1.58294891	        -15.03713181	          2.11887087	          0.89821684	         26.59634319	         10.14099462	        -10.86518930	        -39.89117184	          8.43981255	         -1.18543596	         10.34338621	
          1.59254254	        -15.05661264	          2.13090852	          0.89989315	         25.69672713	         11.37614706	        -10.65088846	        -40.88797147	          8.49601108	         -0.30678243	         10.30939998	
          1.60213617	        -15.07370300	          2.14288084	          0.90133069	         24.77786825	         12.64911116	        -10.40373242	        -41.78446143	          8.59883550	          0.66939162	         10.27103623	
          1.61172980	        -15.08831466	          2.15479734	          0.90252455	         23.84373273	         13.95450717	        -10.13174020	        -42.57306091	          8.74249055	          1.72552029	         10.22868775	
          1.62132343	        -15.10043153	          2.16666560	          0.90347803	         22.89876023	         15.28734753	         -9.84271635	        -43.24555846	          8.92111447	          2.84393653	         10.18267011	
          1.63091706	        -15.11017721	          2.17849295	          0.90420171	         21.94684271	         16.64164751	         -9.54370617	        -43.79445021	          9.12820708	          4.00682909	         10.13346042	
